<svg width="22" height="23" viewBox="0 0 22 23" fill="none" xmlns="http://www.w3.org/2000/svg">
<path d="M9.94574 3.6084H2.98794C2.46071 3.6084 1.95507 3.81784 1.58225 4.19066C1.20944 4.56347 1 5.06912 1 5.59636V19.5121C1 20.0393 1.20944 20.545 1.58225 20.9178C1.95507 21.2906 2.46071 21.5001 2.98794 21.5001H16.9035C17.4308 21.5001 17.9364 21.2906 18.3092 20.9178C18.682 20.545 18.8915 20.0393 18.8915 19.5121V12.5542" stroke="black" stroke-width="2" stroke-linecap="round" stroke-linejoin="round"/>
<path d="M17.3976 2.11758C17.7931 1.72215 18.3294 1.5 18.8886 1.5C19.4478 1.5 19.9841 1.72215 20.3795 2.11758C20.775 2.51301 20.9971 3.04933 20.9971 3.60855C20.9971 4.16778 20.775 4.7041 20.3795 5.09953L10.9368 14.5424L6.96094 15.5363L7.95491 11.5604L17.3976 2.11758Z" stroke="black" stroke-width="2" stroke-linecap="round" stroke-linejoin="round"/>
</svg>
